<svg width="1200" height="700" viewBox="0 0 1200 700" fill="none" xmlns="http://www.w3.org/2000/svg">
  <defs>
    <linearGradient id="bgA" x1="0" y1="0" x2="1" y2="1">
      <stop offset="0%" stop-color="#0B3C5D"/>
      <stop offset="100%" stop-color="#328CC1"/>
    </linearGradient>
    <linearGradient id="cardA" x1="0" y1="0" x2="0" y2="1">
      <stop offset="0%" stop-color="#F8FAFC" stop-opacity="0.96"/>
      <stop offset="100%" stop-color="#E2E8F0" stop-opacity="0.96"/>
    </linearGradient>
  </defs>

  <rect width="1200" height="700" rx="28" fill="url(#bgA)"/>
  <circle cx="1060" cy="120" r="160" fill="#7DD3FC" fill-opacity="0.16"/>
  <circle cx="140" cy="580" r="180" fill="#93C5FD" fill-opacity="0.18"/>

  <rect x="86" y="86" width="1028" height="528" rx="22" fill="#0F172A" fill-opacity="0.22"/>
  <rect x="116" y="122" width="968" height="456" rx="18" fill="url(#cardA)"/>

  <rect x="148" y="154" width="300" height="150" rx="14" fill="#FFFFFF"/>
  <text x="174" y="198" fill="#0B3C5D" font-family="Arial, sans-serif" font-size="30" font-weight="700">Operations</text>
  <text x="174" y="232" fill="#334155" font-family="Arial, sans-serif" font-size="22">Today Overview</text>
  <text x="174" y="270" fill="#475569" font-family="Arial, sans-serif" font-size="18">Sales, inventory and transfer status</text>

  <rect x="470" y="154" width="272" height="122" rx="14" fill="#0B3C5D"/>
  <text x="494" y="200" fill="#E2E8F0" font-family="Arial, sans-serif" font-size="22" font-weight="700">Net Sales</text>
  <text x="494" y="244" fill="#FFFFFF" font-family="Arial, sans-serif" font-size="36" font-weight="800">PHP 128,450</text>

  <rect x="760" y="154" width="292" height="122" rx="14" fill="#328CC1"/>
  <text x="784" y="200" fill="#E0F2FE" font-family="Arial, sans-serif" font-size="22" font-weight="700">Open Alerts</text>
  <text x="784" y="244" fill="#FFFFFF" font-family="Arial, sans-serif" font-size="36" font-weight="800">4</text>

  <rect x="148" y="332" width="904" height="214" rx="16" fill="#FFFFFF"/>
  <text x="176" y="374" fill="#0F172A" font-family="Arial, sans-serif" font-size="26" font-weight="700">Branch Performance</text>

  <rect x="184" y="410" width="56" height="100" rx="8" fill="#0B3C5D"/>
  <rect x="264" y="384" width="56" height="126" rx="8" fill="#0F4D73"/>
  <rect x="344" y="432" width="56" height="78" rx="8" fill="#1D6FA0"/>
  <rect x="424" y="360" width="56" height="150" rx="8" fill="#328CC1"/>
  <rect x="504" y="396" width="56" height="114" rx="8" fill="#50A6D2"/>
  <rect x="584" y="374" width="56" height="136" rx="8" fill="#68B7DD"/>

  <path d="M708 474C742 442 767 460 795 438C826 414 846 426 874 406C901 388 931 400 964 376" stroke="#0B3C5D" stroke-width="8" stroke-linecap="round"/>
  <circle cx="708" cy="474" r="7" fill="#0B3C5D"/>
  <circle cx="795" cy="438" r="7" fill="#0B3C5D"/>
  <circle cx="874" cy="406" r="7" fill="#0B3C5D"/>
  <circle cx="964" cy="376" r="7" fill="#0B3C5D"/>
</svg>
