<svg width="900" height="520" viewBox="0 0 900 520" fill="none" xmlns="http://www.w3.org/2000/svg">
  <defs>
    <linearGradient id="bgA" x1="100" y1="40" x2="820" y2="470" gradientUnits="userSpaceOnUse">
      <stop stop-color="#090909"/>
      <stop offset="0.55" stop-color="#1A130B"/>
      <stop offset="1" stop-color="#050505"/>
    </linearGradient>
    <linearGradient id="goldA" x1="0" y1="0" x2="1" y2="1">
      <stop stop-color="#F2CF83"/>
      <stop offset="1" stop-color="#B68637"/>
    </linearGradient>
  </defs>
  <rect x="14" y="14" width="872" height="492" rx="28" fill="url(#bgA)"/>
  <rect x="14" y="14" width="872" height="492" rx="28" stroke="#D4AB62" stroke-opacity="0.35"/>

  <circle cx="190" cy="120" r="94" fill="#F2CF83" fill-opacity="0.18"/>
  <circle cx="700" cy="120" r="120" fill="#B68637" fill-opacity="0.15"/>

  <text x="74" y="98" fill="#F7DEAA" font-size="28" font-family="Segoe UI, Arial, sans-serif" font-weight="700">Cylinder Capacity Profile</text>
  <text x="74" y="128" fill="#E8C980" font-size="16" font-family="Segoe UI, Arial, sans-serif">Real-time full and empty LPG tank posture by size</text>

  <g transform="translate(110,170)">
    <g transform="translate(0,48)">
      <rect x="0" y="0" width="90" height="170" rx="28" fill="#171717" stroke="url(#goldA)" stroke-width="3"/>
      <rect x="24" y="-18" width="42" height="20" rx="9" fill="#CEA358"/>
      <text x="20" y="198" fill="#F3D389" font-size="15" font-family="Segoe UI, Arial, sans-serif">5kg</text>
    </g>
    <g transform="translate(136,20)">
      <rect x="0" y="0" width="100" height="198" rx="30" fill="#181818" stroke="url(#goldA)" stroke-width="3"/>
      <rect x="27" y="-18" width="46" height="20" rx="9" fill="#D6AE67"/>
      <text x="25" y="228" fill="#F3D389" font-size="15" font-family="Segoe UI, Arial, sans-serif">11kg</text>
    </g>
    <g transform="translate(286,0)">
      <rect x="0" y="0" width="112" height="218" rx="32" fill="#1A1A1A" stroke="url(#goldA)" stroke-width="3"/>
      <rect x="31" y="-18" width="50" height="20" rx="9" fill="#DFB972"/>
      <text x="28" y="248" fill="#F3D389" font-size="15" font-family="Segoe UI, Arial, sans-serif">22kg</text>
    </g>
    <g transform="translate(450,32)">
      <rect x="0" y="0" width="98" height="186" rx="30" fill="#171717" stroke="#A97D34" stroke-width="3"/>
      <rect x="26" y="-18" width="44" height="20" rx="9" fill="#BE934A"/>
      <text x="18" y="216" fill="#EAC776" font-size="15" font-family="Segoe UI, Arial, sans-serif">50kg</text>
    </g>
  </g>

  <rect x="610" y="190" width="220" height="210" rx="18" fill="#101010" stroke="#D5AE67" stroke-opacity="0.45"/>
  <text x="634" y="226" fill="#F4D89B" font-size="16" font-family="Segoe UI, Arial, sans-serif" font-weight="700">Stock Mix</text>
  <text x="634" y="258" fill="#E7C67F" font-size="14" font-family="Segoe UI, Arial, sans-serif">FULL: 1,248</text>
  <text x="634" y="284" fill="#E7C67F" font-size="14" font-family="Segoe UI, Arial, sans-serif">EMPTY: 612</text>
  <text x="634" y="320" fill="#DDBA70" font-size="13" font-family="Segoe UI, Arial, sans-serif">Healthy return cycle</text>
  <text x="634" y="344" fill="#DDBA70" font-size="13" font-family="Segoe UI, Arial, sans-serif">Balanced refill dispatch</text>
</svg>
