<svg width="1200" height="720" viewBox="0 0 1200 720" fill="none" xmlns="http://www.w3.org/2000/svg">
  <defs>
    <linearGradient id="bg" x1="80" y1="60" x2="1120" y2="660" gradientUnits="userSpaceOnUse">
      <stop stop-color="#090909"/>
      <stop offset="0.52" stop-color="#17120B"/>
      <stop offset="1" stop-color="#060606"/>
    </linearGradient>
    <linearGradient id="gold" x1="0" y1="0" x2="1" y2="1">
      <stop stop-color="#F0C86F"/>
      <stop offset="1" stop-color="#B68A3D"/>
    </linearGradient>
    <filter id="soft" x="-40%" y="-40%" width="180%" height="180%">
      <feGaussianBlur stdDeviation="14"/>
    </filter>
  </defs>

  <rect x="20" y="20" width="1160" height="680" rx="34" fill="url(#bg)"/>
  <rect x="20" y="20" width="1160" height="680" rx="34" stroke="#D3A85A" stroke-opacity="0.35"/>

  <circle cx="255" cy="145" r="120" fill="#F0C86F" fill-opacity="0.18" filter="url(#soft)"/>
  <circle cx="950" cy="185" r="145" fill="#B68A3D" fill-opacity="0.16" filter="url(#soft)"/>
  <circle cx="760" cy="560" r="155" fill="#F0C86F" fill-opacity="0.12" filter="url(#soft)"/>

  <text x="90" y="118" fill="#F9E1AD" font-size="34" font-family="Segoe UI, Arial, sans-serif" font-weight="700">LPG TANK INVENTORY VIEW</text>
  <text x="90" y="154" fill="#E9C980" font-size="20" font-family="Segoe UI, Arial, sans-serif">Cylinder groups by branch with full/empty posture</text>

  <g transform="translate(95,210)">
    <rect x="0" y="0" width="300" height="412" rx="22" fill="#0E0E0E" stroke="#D3A85A" stroke-opacity="0.48"/>
    <text x="28" y="46" fill="#F6D899" font-size="21" font-family="Segoe UI, Arial, sans-serif" font-weight="700">Main Store</text>
    <text x="28" y="76" fill="#D9C089" font-size="15" font-family="Segoe UI, Arial, sans-serif">11kg & 22kg cylinders</text>

    <g transform="translate(36,106)">
      <rect x="0" y="0" width="56" height="152" rx="18" fill="#1B1B1B" stroke="url(#gold)" stroke-opacity="0.95" stroke-width="3"/>
      <rect x="14" y="-14" width="28" height="16" rx="7" fill="#CFA258"/>
      <rect x="10" y="38" width="36" height="8" rx="4" fill="#CFA258" fill-opacity="0.7"/>
      <text x="6" y="182" fill="#F0C86F" font-size="12" font-family="Segoe UI, Arial, sans-serif">FULL</text>
    </g>
    <g transform="translate(122,128)">
      <rect x="0" y="0" width="56" height="130" rx="18" fill="#141414" stroke="#9D7A3D" stroke-opacity="0.9" stroke-width="3"/>
      <rect x="14" y="-14" width="28" height="16" rx="7" fill="#B88E46"/>
      <text x="3" y="160" fill="#E4BF74" font-size="12" font-family="Segoe UI, Arial, sans-serif">EMPTY</text>
    </g>
    <g transform="translate(208,94)">
      <rect x="0" y="0" width="56" height="164" rx="18" fill="#1A1A1A" stroke="url(#gold)" stroke-opacity="0.9" stroke-width="3"/>
      <rect x="14" y="-14" width="28" height="16" rx="7" fill="#D3A85A"/>
      <text x="5" y="194" fill="#F0C86F" font-size="12" font-family="Segoe UI, Arial, sans-serif">FULL</text>
    </g>

    <rect x="24" y="308" width="252" height="82" rx="14" fill="#101010" stroke="#B68A3D" stroke-opacity="0.44"/>
    <text x="42" y="340" fill="#F5D898" font-size="15" font-family="Segoe UI, Arial, sans-serif">Full Tanks: 246</text>
    <text x="42" y="367" fill="#D8BE85" font-size="15" font-family="Segoe UI, Arial, sans-serif">Empty Tanks: 119</text>
  </g>

  <g transform="translate(440,210)">
    <rect x="0" y="0" width="300" height="412" rx="22" fill="#0E0E0E" stroke="#D3A85A" stroke-opacity="0.48"/>
    <text x="28" y="46" fill="#F6D899" font-size="21" font-family="Segoe UI, Arial, sans-serif" font-weight="700">Warehouse</text>
    <text x="28" y="76" fill="#D9C089" font-size="15" font-family="Segoe UI, Arial, sans-serif">Bulk reserve and dispatch</text>

    <g transform="translate(34,92)">
      <rect x="0" y="0" width="62" height="166" rx="20" fill="#191919" stroke="url(#gold)" stroke-opacity="0.95" stroke-width="3"/>
      <rect x="16" y="-15" width="30" height="17" rx="7" fill="#D0A459"/>
    </g>
    <g transform="translate(117,116)">
      <rect x="0" y="0" width="62" height="142" rx="20" fill="#181818" stroke="url(#gold)" stroke-opacity="0.85" stroke-width="3"/>
      <rect x="16" y="-15" width="30" height="17" rx="7" fill="#B88D45"/>
    </g>
    <g transform="translate(200,82)">
      <rect x="0" y="0" width="62" height="176" rx="20" fill="#1C1C1C" stroke="url(#gold)" stroke-opacity="0.96" stroke-width="3"/>
      <rect x="16" y="-15" width="30" height="17" rx="7" fill="#D9B06C"/>
    </g>

    <rect x="24" y="308" width="252" height="82" rx="14" fill="#101010" stroke="#B68A3D" stroke-opacity="0.44"/>
    <text x="42" y="340" fill="#F5D898" font-size="15" font-family="Segoe UI, Arial, sans-serif">Reserved Full: 912</text>
    <text x="42" y="367" fill="#D8BE85" font-size="15" font-family="Segoe UI, Arial, sans-serif">Awaiting Return: 381</text>
  </g>

  <g transform="translate(785,210)">
    <rect x="0" y="0" width="320" height="412" rx="22" fill="#0E0E0E" stroke="#D3A85A" stroke-opacity="0.48"/>
    <text x="28" y="46" fill="#F6D899" font-size="21" font-family="Segoe UI, Arial, sans-serif" font-weight="700">Distribution Flow</text>
    <text x="28" y="76" fill="#D9C089" font-size="15" font-family="Segoe UI, Arial, sans-serif">Store, route, and return cycle</text>

    <rect x="30" y="108" width="260" height="56" rx="13" fill="#121212" stroke="#C89E54" stroke-opacity="0.55"/>
    <text x="48" y="142" fill="#EED08D" font-size="15" font-family="Segoe UI, Arial, sans-serif">Refill Exchange Completion</text>
    <rect x="30" y="182" width="260" height="56" rx="13" fill="#121212" stroke="#C89E54" stroke-opacity="0.55"/>
    <text x="48" y="216" fill="#EED08D" font-size="15" font-family="Segoe UI, Arial, sans-serif">Non-Refill Outbound Sales</text>
    <rect x="30" y="256" width="260" height="56" rx="13" fill="#121212" stroke="#C89E54" stroke-opacity="0.55"/>
    <text x="48" y="290" fill="#EED08D" font-size="15" font-family="Segoe UI, Arial, sans-serif">Empty Tank Return Intake</text>

    <path d="M72 344H248" stroke="#E8C577" stroke-width="3" stroke-linecap="round"/>
    <circle cx="72" cy="344" r="8" fill="#E8C577"/>
    <circle cx="160" cy="344" r="8" fill="#D0A24F"/>
    <circle cx="248" cy="344" r="8" fill="#B88A3D"/>
  </g>
</svg>
