<svg width="1024" height="640" viewBox="0 0 1024 640" fill="none" xmlns="http://www.w3.org/2000/svg">
  <rect width="1024" height="640" rx="22" fill="#0F172A"/>
  <rect x="24" y="24" width="976" height="592" rx="18" fill="#E2E8F0"/>
  <rect x="46" y="46" width="932" height="62" rx="12" fill="#0B3C5D"/>
  <text x="72" y="85" fill="#E2E8F0" font-family="Arial, sans-serif" font-size="22" font-weight="700">VPOS Dashboard</text>
  <rect x="46" y="124" width="220" height="120" rx="12" fill="#FFFFFF"/>
  <rect x="282" y="124" width="220" height="120" rx="12" fill="#FFFFFF"/>
  <rect x="518" y="124" width="220" height="120" rx="12" fill="#FFFFFF"/>
  <rect x="754" y="124" width="224" height="120" rx="12" fill="#FFFFFF"/>
  <rect x="46" y="262" width="932" height="332" rx="14" fill="#FFFFFF"/>
  <rect x="76" y="462" width="46" height="96" rx="8" fill="#0B3C5D"/>
  <rect x="134" y="438" width="46" height="120" rx="8" fill="#1E5D88"/>
  <rect x="192" y="476" width="46" height="82" rx="8" fill="#3180B5"/>
  <rect x="250" y="426" width="46" height="132" rx="8" fill="#449DD1"/>
  <rect x="308" y="446" width="46" height="112" rx="8" fill="#6CB8E2"/>
  <path d="M400 530C438 510 470 506 508 488C544 470 576 470 608 446C644 420 678 426 716 398C748 376 784 378 826 350" stroke="#0B3C5D" stroke-width="7" stroke-linecap="round"/>
</svg>
